<?xml version="1.0" standalone="no"?>
<!DOCTYPE svg PUBLIC "-//W3C//DTD SVG 20010904//EN"
 "http://www.w3.org/TR/2001/REC-SVG-20010904/DTD/svg10.dtd">
<svg version="1.0" xmlns="http://www.w3.org/2000/svg"
 width="2298.000000pt" height="2298.000000pt" viewBox="0 0 2298.000000 2298.000000"
 preserveAspectRatio="xMidYMid meet">

<g transform="translate(0.000000,2298.000000) scale(0.100000,-0.100000)"
fill="#000000" stroke="none">
<path d="M11645 19758 l-70 -33 -200 -1 c-275 -3 -693 -20 -791 -33 -81 -11
-388 -69 -604 -115 -139 -29 -216 -49 -294 -76 -33 -11 -114 -29 -180 -40
-133 -22 -235 -47 -346 -85 -41 -14 -83 -25 -94 -25 -11 0 -31 -11 -45 -24
-15 -14 -64 -35 -116 -51 -219 -65 -417 -157 -545 -252 -85 -65 -367 -353
-428 -438 -33 -47 -119 -147 -190 -222 -192 -203 -241 -269 -305 -405 -30 -62
-67 -205 -67 -255 0 -21 -12 -47 -36 -79 -96 -125 -151 -248 -184 -410 -7 -32
-23 -97 -36 -143 -13 -46 -24 -95 -24 -110 0 -15 -11 -55 -25 -89 -14 -35 -29
-100 -35 -153 -9 -75 -17 -102 -42 -143 -28 -46 -53 -116 -41 -116 2 0 14 12
27 27 15 17 29 24 39 20 21 -8 21 -32 3 -85 -8 -22 -16 -55 -18 -73 -3 -30 0
-33 22 -34 21 0 25 -5 27 -35 6 -91 28 -208 45 -235 10 -16 18 -36 18 -43 0
-7 7 -20 15 -28 8 -9 15 -32 15 -53 0 -25 11 -54 34 -90 27 -44 33 -61 30 -98
-2 -29 1 -45 9 -49 8 -3 12 -16 9 -33 -3 -20 3 -35 19 -50 21 -20 22 -24 10
-69 -9 -39 -9 -58 1 -95 7 -28 17 -46 24 -43 17 7 37 -39 30 -68 -5 -22 -2
-28 18 -36 28 -10 76 -86 76 -118 0 -28 30 -102 40 -102 5 0 12 -21 15 -47 4
-27 15 -75 25 -108 26 -88 31 -124 20 -145 -7 -13 -5 -41 7 -92 10 -40 20 -75
23 -78 3 -3 6 -14 7 -25 1 -11 7 -40 13 -65 19 -74 37 -273 28 -299 -7 -19
-13 -22 -41 -18 -17 2 -60 17 -94 31 -117 50 -265 63 -298 26 -17 -19 -17 -20
-1 -14 19 7 134 -14 154 -29 8 -6 17 -5 26 2 18 15 53 -5 114 -67 37 -39 42
-50 43 -90 0 -26 4 -56 9 -67 7 -17 9 -16 10 10 2 17 2 35 1 41 -1 6 6 17 14
24 12 10 15 9 15 -6 0 -14 3 -15 12 -6 9 9 17 -2 36 -46 28 -66 29 -86 8 -108
-9 -8 -16 -22 -16 -30 0 -8 -7 -14 -15 -14 -8 0 -15 6 -15 13 0 7 -23 23 -50
36 -42 20 -50 28 -45 45 3 12 2 15 -1 9 -8 -19 -20 -16 -50 12 -15 14 -29 23
-32 20 -3 -3 -12 1 -20 7 -8 7 -26 14 -41 16 -14 1 -34 14 -44 27 -10 14 -23
25 -28 25 -6 0 -31 16 -57 36 -41 31 -53 35 -97 34 -69 -3 -70 -3 -49 21 19
22 19 22 -3 10 -65 -34 -90 -149 -58 -266 9 -36 21 -65 27 -65 5 0 7 -4 3 -9
-3 -5 -1 -12 4 -15 5 -4 12 2 16 13 4 15 12 18 33 15 15 -3 29 -10 31 -16 2
-6 12 -19 22 -29 12 -12 19 -33 19 -55 0 -28 3 -35 18 -32 13 3 16 12 14 41
-2 22 2 37 8 37 7 0 5 9 -4 22 -23 32 -20 54 11 78 l27 21 24 -26 c14 -15 24
-40 25 -60 1 -19 5 -35 10 -35 4 0 7 -11 7 -24 0 -25 20 -48 20 -24 1 14 24
-43 42 -102 16 -51 11 -229 -6 -271 -4 -9 -1 -21 7 -28 20 -16 27 4 32 93 6
97 13 144 25 165 5 10 6 28 3 41 -5 19 -3 21 16 15 20 -6 22 -3 19 30 -1 20
-6 39 -10 41 -18 11 -6 33 27 53 l35 20 40 -26 c50 -33 59 -63 55 -183 -2 -52
-4 -125 -5 -162 -2 -60 -5 -68 -22 -68 -16 0 -19 -5 -14 -22 4 -13 8 -44 10
-69 2 -25 9 -55 15 -67 6 -11 8 -27 5 -35 -3 -10 5 -19 25 -28 28 -13 31 -18
32 -64 1 -94 9 -210 19 -284 9 -65 3 -225 -7 -195 -2 7 -13 9 -24 7 -14 -4
-20 -1 -18 8 5 26 -13 64 -47 99 -120 125 -164 225 -164 370 0 32 -4 81 -9
107 -5 26 -12 65 -16 86 -9 59 -28 46 -20 -14 6 -40 4 -50 -6 -47 -14 5 -37
61 -38 94 -1 12 -8 27 -17 34 -13 12 -14 8 -9 -41 4 -30 14 -72 22 -94 8 -22
23 -92 33 -155 21 -134 46 -231 62 -241 9 -6 8 -12 -1 -23 -8 -9 -9 -16 -3
-16 5 0 17 -16 27 -35 16 -36 105 -130 141 -151 10 -6 28 -27 39 -48 l20 -37
-24 -18 c-21 -16 -23 -24 -17 -60 6 -37 3 -44 -24 -71 -16 -16 -30 -35 -30
-42 0 -7 -23 -34 -52 -60 -60 -52 -59 -71 1 -37 31 17 43 20 54 11 15 -13 37
2 37 24 0 18 30 38 58 39 19 0 28 6 32 25 3 15 14 26 26 28 18 3 23 -7 38 -80
10 -45 29 -105 43 -132 18 -35 27 -72 30 -125 5 -70 3 -78 -19 -103 -13 -16
-31 -28 -39 -28 -9 0 -31 -8 -50 -17 -25 -13 -58 -18 -122 -18 -74 0 -85 -2
-70 -13 10 -7 43 -20 73 -29 60 -17 80 -15 215 26 55 17 72 18 81 8 7 -6 38
-95 69 -197 50 -162 101 -306 192 -540 50 -128 193 -418 353 -714 34 -63 41
-85 37 -115 -2 -20 -38 -98 -78 -175 -71 -133 -77 -143 -204 -268 -71 -72
-164 -158 -205 -191 -41 -33 -102 -86 -135 -118 -53 -51 -72 -62 -163 -93
-110 -38 -205 -77 -320 -132 -39 -18 -74 -34 -77 -34 -2 0 -28 -11 -57 -24
-131 -60 -506 -218 -683 -288 -115 -45 -340 -157 -400 -198 -84 -58 -146 -90
-252 -128 -160 -59 -447 -148 -623 -193 -338 -87 -501 -146 -681 -247 -120
-67 -168 -87 -325 -132 -282 -81 -372 -113 -789 -277 -49 -20 -178 -78 -285
-130 -107 -52 -224 -105 -260 -118 -113 -40 -190 -73 -254 -108 -33 -19 -124
-57 -200 -86 -77 -29 -149 -57 -160 -64 -12 -6 -61 -11 -111 -12 -68 0 -99 -5
-125 -19 -155 -83 -193 -185 -310 -849 -29 -159 -35 -208 -61 -452 -11 -100
-5 -224 23 -462 l12 -103 -48 -92 c-27 -51 -63 -113 -80 -138 -47 -67 -102
-196 -116 -270 -7 -36 -18 -85 -25 -110 -7 -25 -18 -76 -24 -115 -30 -176 -58
-275 -135 -490 -20 -55 -57 -179 -81 -275 -43 -166 -63 -242 -121 -460 -15
-52 -32 -120 -39 -150 -7 -30 -23 -91 -35 -135 -23 -84 -45 -167 -60 -225 -29
-120 -63 -261 -72 -300 -18 -85 -58 -255 -72 -305 -36 -129 -116 -532 -151
-761 -27 -176 -91 -376 -169 -531 -73 -144 -122 -275 -175 -468 -17 -60 -35
-126 -41 -145 -40 -143 -51 -185 -70 -260 -11 -47 -23 -93 -26 -102 -5 -17
536 -18 11276 -18 9021 0 11281 3 11277 13 -3 6 -14 37 -23 67 -65 204 -176
538 -184 555 -5 11 -21 58 -36 105 -14 47 -52 166 -84 265 -131 405 -178 565
-210 710 -5 22 -18 69 -30 105 -11 36 -34 108 -50 160 -16 52 -54 172 -85 265
-30 94 -55 175 -55 182 0 6 -6 24 -14 40 -8 15 -23 57 -35 93 -46 148 -162
486 -172 504 -6 11 -26 60 -44 110 -130 358 -386 980 -515 1251 -27 55 -62
134 -78 175 -71 177 -121 283 -142 300 -13 10 -42 77 -56 128 -8 29 -14 91
-14 138 0 152 -42 303 -117 421 -18 29 -74 92 -124 140 -50 49 -104 108 -121
131 -30 44 -30 44 -23 140 6 89 32 222 70 362 26 96 16 227 -49 600 -19 113
-83 355 -107 403 -67 140 -200 225 -317 202 -20 -3 -41 -6 -47 -6 -34 0 -283
81 -405 132 -80 34 -181 76 -225 94 -85 36 -351 125 -372 125 -27 0 -184 54
-273 95 -96 43 -181 71 -365 120 -55 14 -176 50 -270 80 -93 30 -224 68 -290
85 -174 45 -331 104 -490 184 -140 71 -216 99 -585 211 -255 77 -388 132 -466
191 -53 39 -258 155 -459 258 -104 54 -201 106 -215 116 -33 23 -359 184 -480
237 -163 72 -302 109 -522 142 -316 48 -369 60 -402 90 -30 28 -209 236 -266
311 -19 25 -43 54 -53 65 -26 28 -117 159 -156 226 -18 30 -46 70 -62 88 -16
19 -29 39 -29 46 0 18 20 127 30 160 31 107 95 305 106 330 36 81 207 640 229
750 8 39 21 93 29 120 34 119 55 203 61 245 12 78 32 86 112 45 26 -14 82 -32
123 -41 232 -49 364 33 365 226 1 74 -12 143 -25 135 -12 -8 -58 40 -64 68 -5
20 -3 27 9 27 8 0 15 -8 16 -17 0 -11 3 -13 6 -5 2 6 10 12 17 12 8 0 18 25
26 63 7 34 16 69 20 77 13 27 21 100 10 100 -5 0 -7 -6 -4 -13 2 -7 -7 -23
-21 -35 -26 -23 -33 -42 -14 -42 6 0 9 -7 7 -16 -2 -8 -7 -15 -13 -14 -5 1
-12 -9 -15 -22 -4 -17 -14 -24 -38 -26 -18 -2 -32 1 -32 7 0 5 -15 19 -34 30
-50 31 -58 73 -16 86 11 3 22 23 29 53 7 26 22 67 34 92 12 24 21 48 19 52 -1
4 2 8 8 8 5 0 10 11 10 24 0 14 4 27 10 31 5 3 7 12 4 19 -3 8 4 33 14 57 24
52 35 118 23 133 -10 12 10 214 23 234 4 6 2 20 -3 31 -8 14 -7 22 4 31 8 7
15 20 15 30 0 10 7 23 15 30 8 7 15 18 15 25 0 7 12 38 26 69 15 33 23 64 19
74 -6 15 -7 15 -17 -3 -6 -11 -15 -23 -20 -26 -4 -3 -18 -32 -29 -65 -11 -32
-24 -63 -29 -69 -4 -5 -13 -29 -19 -52 -7 -24 -20 -47 -30 -52 -17 -9 -19 -4
-23 72 -10 167 -2 373 16 414 28 63 32 67 65 77 25 7 35 5 51 -9 11 -10 20
-24 20 -32 0 -7 4 -13 10 -13 5 0 7 -6 4 -14 -3 -7 2 -16 10 -19 9 -4 16 -16
16 -27 0 -11 5 -20 10 -20 6 0 10 -19 10 -42 0 -111 59 84 63 211 3 75 7 95
21 103 13 7 16 18 11 46 -9 58 -30 94 -95 163 -55 57 -61 61 -73 45 -22 -30
-74 -3 -62 33 5 17 -1 20 -60 26 -94 10 -146 1 -244 -45 -98 -45 -163 -59
-186 -40 -16 13 -21 90 -7 104 4 4 8 29 9 54 7 143 8 151 33 184 24 32 34 74
46 188 4 30 11 61 16 67 6 7 7 28 4 47 -4 21 -2 37 4 41 7 4 9 23 4 51 -6 39
-4 44 14 44 17 0 20 8 24 74 4 56 10 81 27 102 18 23 21 35 15 71 -3 24 -3 72
1 108 6 56 11 68 43 99 33 33 35 37 23 60 -19 35 -8 56 29 56 33 0 36 9 18 60
-10 30 -9 35 12 52 21 17 22 20 6 36 -24 28 -19 50 15 68 25 12 30 20 24 37
-14 44 -17 77 -7 77 5 0 8 18 5 43 -4 36 -1 48 21 74 16 19 24 37 20 47 -3 9
-3 24 1 34 5 9 7 24 6 34 -1 9 3 19 8 22 6 4 8 13 4 21 -3 10 1 15 11 15 28 0
30 28 5 49 l-24 20 22 21 c29 26 39 67 24 91 -15 25 -14 56 3 66 14 8 10 61
-9 105 -4 11 0 20 15 28 17 9 20 17 15 37 -4 17 0 31 10 43 15 17 15 21 -1 51
-16 31 -16 33 3 48 27 23 34 47 17 61 -16 14 -19 46 -4 55 21 13 10 54 -17 67
-21 10 -28 21 -29 43 0 17 -4 38 -8 47 -5 11 1 28 18 51 l26 33 -19 69 c-14
49 -27 75 -45 88 -20 14 -24 24 -20 47 5 22 -2 43 -30 88 -20 33 -36 65 -36
71 0 18 -79 160 -117 210 -18 25 -41 69 -49 99 -18 62 -43 109 -89 167 -17 22
-43 60 -58 85 -58 96 -147 208 -221 279 -26 25 -62 66 -79 91 -17 25 -46 60
-64 78 l-33 32 -24 -47 c-35 -66 -54 -88 -103 -112 -80 -40 -112 -23 -78 42
19 37 9 124 -15 137 -22 12 -40 61 -40 111 0 43 -60 198 -120 308 -43 79 -71
103 -234 196 -28 15 -69 46 -93 68 -42 38 -49 41 -121 46 -76 6 -78 7 -157 68
-79 61 -124 82 -295 139 -75 25 -113 33 -270 54 -49 7 -113 24 -152 41 -57 25
-79 29 -158 29 -73 0 -104 5 -153 24 -35 14 -95 27 -137 30 -70 6 -80 4 -145
-26z m-4107 -1763 c-6 -14 -13 -23 -16 -21 -7 7 9 46 18 46 5 0 4 -11 -2 -25z
m3918 -575 c33 -6 93 -10 133 -10 54 0 73 -4 77 -15 4 -8 11 -15 16 -15 6 0 8
6 5 13 -3 9 6 11 34 9 22 -2 39 -9 39 -14 0 -6 6 -6 15 2 8 6 20 8 26 4 9 -5
7 -9 -7 -14 -15 -6 -11 -10 23 -19 23 -6 54 -18 70 -26 15 -8 43 -15 61 -15
17 0 32 -4 32 -10 0 -5 6 -10 13 -10 6 0 57 -23 112 -50 54 -28 107 -50 117
-50 10 0 18 -6 18 -13 0 -8 18 -22 40 -33 22 -10 40 -24 40 -30 0 -15 24 -64
32 -64 3 0 25 -18 48 -40 23 -22 48 -40 56 -40 8 0 11 -6 8 -15 -4 -8 -2 -15
3 -15 13 0 68 -53 76 -72 3 -10 13 -15 20 -12 17 6 47 -21 47 -42 0 -8 4 -14
9 -14 14 0 61 -45 61 -59 0 -6 5 -11 10 -11 6 0 10 -9 10 -20 0 -13 9 -22 28
-26 47 -10 52 -13 52 -32 0 -10 11 -24 24 -30 13 -6 27 -20 31 -31 3 -12 13
-21 20 -21 8 0 17 -11 21 -24 5 -21 13 -25 46 -28 27 -2 45 -9 52 -22 8 -14 8
-20 -1 -23 -14 -5 -18 -33 -5 -33 4 0 13 5 20 12 9 9 16 7 32 -10 11 -11 20
-28 20 -35 0 -9 15 -17 39 -21 29 -4 40 -12 44 -28 5 -18 9 -20 19 -10 20 20
28 14 22 -18 -7 -35 14 -43 23 -9 4 16 8 17 14 7 7 -10 9 -10 9 0 0 17 39 15
46 -3 4 -8 21 -22 40 -31 18 -9 37 -26 41 -37 8 -26 7 -119 -2 -194 -5 -44 -4
-53 9 -53 21 0 20 -9 -4 -35 -18 -19 -21 -38 -24 -145 -4 -109 -6 -125 -23
-131 -10 -4 -12 -8 -4 -8 7 -1 11 -7 7 -16 -3 -8 -1 -26 4 -39 6 -16 5 -26 -1
-28 -8 -3 -8 -40 -1 -121 6 -64 8 -126 5 -136 -3 -13 2 -20 17 -24 15 -4 21
-11 17 -21 -4 -10 -1 -16 7 -16 11 0 11 -8 3 -40 -6 -22 -17 -40 -24 -40 -7 0
-13 -7 -13 -15 0 -8 -7 -15 -15 -15 -9 0 -15 -9 -15 -25 0 -14 4 -25 10 -25
13 0 8 -52 -6 -67 -20 -21 -36 -16 -24 6 11 22 0 34 -24 25 -19 -7 -21 -21 -3
-27 26 -9 -3 -19 -59 -19 -35 0 -60 4 -62 11 -2 6 -9 11 -15 11 -6 0 -18 7
-28 16 -10 9 -32 17 -48 19 -17 1 -37 8 -46 15 -8 7 -22 9 -32 6 -9 -4 -20 -1
-24 6 -6 9 -30 12 -74 11 -36 0 -65 3 -65 8 0 5 -7 9 -15 9 -20 0 -19 -10 3
-26 14 -11 15 -13 2 -14 -9 0 -21 5 -27 11 -11 11 -144 41 -151 34 -3 -3 3
-14 13 -25 16 -18 16 -20 2 -15 -31 12 -135 11 -130 -2 6 -15 -29 -25 -64 -18
-26 6 -27 5 -10 -8 16 -14 16 -15 -10 -22 -15 -4 -66 -13 -113 -20 -80 -13
-135 -24 -205 -39 -23 -5 -25 -4 -10 3 17 8 16 10 -12 10 -17 1 -35 -4 -38 -9
-4 -6 -10 -8 -15 -5 -4 3 -27 -2 -51 -10 -23 -9 -72 -22 -108 -30 -35 -9 -69
-19 -75 -24 -6 -5 -36 -16 -66 -25 -63 -18 -88 -32 -77 -42 4 -5 21 0 37 10
17 9 30 13 30 8 0 -11 -90 -71 -143 -96 -21 -10 -41 -24 -44 -32 -4 -11 -56
-44 -70 -44 -1 0 -3 12 -3 26 0 14 -4 23 -10 19 -13 -8 -13 -50 -1 -73 6 -9
16 -37 23 -61 14 -48 38 -67 38 -31 0 20 1 20 23 -5 17 -20 34 -27 76 -30 30
-3 60 0 66 5 7 6 25 8 42 6 16 -1 38 3 48 10 11 8 28 14 39 14 12 0 41 8 66
16 53 20 114 34 152 37 15 2 30 6 34 10 4 4 13 2 20 -4 8 -7 18 -7 31 0 16 9
84 28 123 35 29 5 103 28 119 36 17 9 152 30 241 38 51 4 53 3 40 -13 -13 -16
-12 -17 15 -11 17 3 82 8 145 11 l115 4 44 -39 c31 -27 60 -43 95 -50 28 -6
58 -15 66 -20 13 -9 12 -12 -4 -25 -16 -12 -17 -18 -8 -27 13 -13 16 -67 4
-83 -17 -24 -53 -32 -142 -34 -52 -2 -102 -3 -110 -3 -8 -1 -96 3 -196 7 -266
12 -505 -18 -640 -80 -30 -14 -57 -25 -59 -25 -11 0 -111 -74 -128 -94 -27
-31 -77 -109 -77 -119 0 -4 8 -7 18 -6 31 3 36 -1 20 -13 -17 -15 -63 -126
-55 -134 3 -3 -6 -16 -19 -29 -25 -26 -32 -65 -11 -65 6 0 24 8 38 18 29 19
129 121 129 131 0 4 19 26 43 48 60 60 117 78 117 37 0 -51 116 -204 155 -204
8 0 18 -8 24 -17 9 -16 15 -16 118 1 113 19 142 32 214 98 19 18 44 53 54 78
11 25 20 47 22 49 7 10 43 -34 43 -51 0 -11 4 -17 8 -14 5 3 8 -17 7 -45 -1
-35 -7 -53 -21 -64 -18 -14 -18 -14 3 -15 14 0 23 -7 25 -21 3 -20 10 -22 90
-24 47 -2 92 -6 98 -10 20 -12 103 -16 125 -5 11 5 42 16 69 25 27 8 58 22 69
30 12 8 29 15 39 15 9 0 21 7 26 16 5 9 26 26 48 38 21 12 39 29 39 37 0 8 10
28 23 43 12 16 19 32 16 37 -3 5 1 9 8 9 7 0 19 11 26 25 6 14 18 36 25 50 6
14 17 25 23 25 6 0 17 6 24 14 6 8 19 12 27 9 12 -5 15 -2 11 14 -5 17 0 20
31 21 21 1 41 9 49 19 26 36 150 56 195 31 20 -10 56 -16 110 -19 19 0 20 -4
17 -66 -1 -37 1 -43 18 -43 18 0 21 -9 27 -87 3 -49 13 -104 21 -123 8 -21 13
-64 12 -107 -1 -47 3 -77 12 -88 11 -13 10 -22 -5 -55 -15 -34 -17 -48 -8 -87
7 -28 7 -57 2 -77 -5 -17 -9 -46 -9 -63 0 -18 -4 -33 -9 -33 -10 0 -24 -74
-22 -117 2 -20 -3 -34 -13 -40 -13 -7 -14 -14 -5 -39 10 -25 9 -37 -6 -67 -13
-28 -16 -50 -11 -87 4 -29 3 -50 -3 -50 -13 0 -41 -87 -41 -127 0 -18 -3 -33
-7 -33 -13 0 -33 -51 -33 -81 0 -15 -4 -30 -9 -33 -5 -4 -5 -21 2 -41 9 -30 8
-37 -8 -49 -11 -8 -16 -19 -12 -30 11 -27 -3 -75 -20 -69 -13 5 -13 -14 2 -64
7 -23 -14 -136 -27 -145 -11 -6 -11 -10 0 -16 10 -7 11 -19 3 -53 -6 -24 -11
-65 -11 -91 0 -28 -5 -48 -12 -50 -9 -3 -12 -26 -11 -73 2 -80 -5 -100 -22
-59 l-11 29 -16 -33 c-9 -17 -19 -65 -23 -107 -5 -54 -11 -75 -21 -75 -8 0
-14 -6 -14 -14 0 -7 -7 -19 -15 -26 -8 -7 -15 -23 -15 -36 0 -13 -8 -27 -17
-33 -17 -9 -17 -11 2 -25 20 -15 19 -17 -22 -56 -24 -23 -43 -47 -43 -55 0 -7
-5 -17 -11 -21 -6 -3 -8 -17 -5 -30 4 -13 2 -24 -3 -24 -6 0 -16 -18 -22 -40
-7 -22 -18 -40 -26 -40 -16 0 -17 -27 -1 -32 7 -3 9 -11 4 -24 -8 -18 -8 -18
-15 -1 -5 15 -13 5 -33 -42 -15 -34 -22 -61 -16 -61 5 0 8 -6 6 -12 -3 -7 -11
-13 -19 -13 -23 0 -59 -61 -59 -98 0 -29 -6 -38 -35 -56 -19 -11 -35 -27 -35
-34 0 -8 -11 -23 -25 -33 -15 -11 -25 -29 -25 -44 0 -17 -13 -39 -36 -61 -20
-18 -40 -44 -44 -56 -5 -12 -25 -27 -44 -34 -32 -12 -36 -16 -32 -44 2 -16 1
-22 -1 -12 -7 27 -19 20 -38 -23 -10 -22 -22 -40 -27 -40 -12 0 -47 -41 -48
-55 0 -5 -12 -21 -25 -34 -14 -13 -25 -34 -25 -47 0 -13 -6 -24 -12 -25 -12 0
-118 -120 -127 -143 -2 -6 -19 -24 -37 -41 -17 -16 -40 -45 -50 -64 -26 -48
-50 -71 -74 -71 -16 0 -20 -7 -20 -37 0 -29 -8 -44 -38 -73 -21 -21 -49 -58
-62 -84 -16 -29 -32 -46 -43 -46 -14 0 -17 -5 -12 -20 4 -13 2 -20 -7 -20 -7
0 -26 -14 -42 -31 -20 -20 -31 -27 -36 -19 -5 7 -10 2 -14 -15 -5 -19 -11 -25
-22 -21 -10 4 -18 -1 -21 -14 -3 -11 -10 -20 -16 -20 -15 0 -87 -71 -87 -86 0
-15 -55 -74 -69 -74 -6 0 -11 -7 -11 -15 0 -9 -7 -18 -15 -21 -8 -3 -24 -21
-36 -40 -11 -19 -24 -32 -28 -29 -11 6 -51 -24 -51 -38 0 -12 -21 -23 -82 -46
-16 -6 -28 -15 -28 -21 0 -5 -7 -10 -15 -10 -16 0 -56 -20 -65 -32 -3 -4 -23
-11 -45 -17 -47 -11 -108 -34 -115 -42 -3 -3 -18 -9 -35 -12 -16 -3 -48 -10
-70 -17 -70 -20 -269 -39 -282 -28 -8 7 -13 7 -13 1 0 -16 -73 -25 -81 -11 -6
9 -19 9 -57 0 -39 -11 -54 -11 -77 0 -22 10 -29 10 -32 1 -3 -7 -11 -9 -19 -6
-8 3 -14 -1 -14 -8 -1 -8 -7 -3 -15 11 l-14 25 -9 -24 c-7 -21 -10 -22 -15 -7
-4 10 -11 15 -16 12 -20 -13 -222 -18 -236 -6 -7 6 -39 13 -71 16 -32 2 -60 8
-63 13 -3 5 -21 12 -38 15 -18 4 -31 12 -30 17 2 11 -126 59 -158 59 -12 0
-33 11 -46 24 -14 13 -38 26 -54 28 -19 2 -33 11 -40 26 -6 13 -18 22 -32 22
-13 0 -23 5 -23 10 0 6 -6 10 -14 10 -8 0 -33 16 -56 35 -23 19 -47 35 -54 35
-6 0 -17 14 -25 31 -9 20 -18 28 -28 25 -15 -6 -43 15 -43 31 0 14 -53 61 -73
65 -10 1 -18 6 -18 10 1 13 -69 78 -84 78 -8 0 -25 16 -37 35 -13 19 -28 35
-34 35 -6 0 -24 18 -39 40 -15 22 -34 40 -41 40 -14 0 -74 57 -74 71 0 5 -4 9
-9 9 -19 0 -231 225 -231 245 0 5 -14 16 -31 24 -17 7 -29 19 -27 28 3 14 -87
116 -97 110 -2 -1 -21 15 -43 36 -21 20 -42 34 -46 30 -4 -5 -6 -3 -4 3 2 6
-14 29 -34 52 -31 34 -38 38 -38 22 0 -11 -3 -20 -6 -20 -15 0 -74 73 -74 91
0 10 -7 19 -15 19 -23 0 -65 49 -65 75 0 24 -4 27 -40 29 -8 1 -17 12 -18 25
-2 13 -17 38 -33 55 -16 17 -29 36 -29 43 0 7 -11 24 -25 39 -48 52 -67 91
-55 114 6 11 7 20 1 20 -5 0 -12 18 -16 40 -7 40 -19 51 -28 28 -3 -7 -3 1 0
18 4 26 -3 44 -36 94 -23 34 -41 68 -41 76 0 9 -11 30 -25 48 -14 18 -25 42
-25 54 0 11 -6 27 -13 34 -8 7 -17 32 -20 55 -7 44 -31 94 -60 127 -12 13 -17
31 -14 49 2 15 0 30 -4 33 -4 2 -11 36 -15 74 -3 39 -11 70 -15 70 -5 0 -9 18
-9 40 0 22 4 40 10 40 12 0 2 237 -12 263 -5 10 -5 24 0 33 11 20 -7 104 -22
104 -14 0 -19 152 -6 160 9 6 -1 50 -20 89 -9 21 -30 25 -30 7 0 -9 4 -16 9
-16 5 0 7 -9 4 -20 -4 -16 -8 -18 -19 -9 -17 14 -18 45 -3 55 6 3 8 17 5 30
-5 19 -3 22 11 18 11 -4 14 -3 7 3 -6 4 -17 25 -25 46 -7 20 -17 37 -22 37 -9
0 -5 29 9 64 5 13 -1 16 -25 16 -27 0 -32 5 -42 40 -7 22 -15 40 -19 40 -4 0
-10 27 -14 61 -3 33 -10 68 -15 77 -5 9 -5 26 0 39 5 14 5 33 -1 49 -6 14 -10
40 -10 59 0 19 -5 37 -10 40 -6 4 -8 21 -4 41 4 21 2 34 -4 34 -6 0 -8 16 -5
40 5 33 3 40 -11 40 -24 0 -20 24 6 35 27 12 37 45 14 45 -12 0 -16 10 -16 40
0 22 -4 40 -10 40 -5 0 -10 5 -10 10 0 6 7 10 15 10 10 0 15 10 15 30 0 17 -5
30 -11 30 -7 0 -9 12 -4 36 4 26 2 39 -7 45 -10 7 -10 13 4 36 9 16 14 39 11
54 -4 25 28 104 39 94 3 -3 13 4 23 15 15 16 16 22 5 36 -11 13 -11 17 0 24
11 7 11 12 2 23 -10 12 -9 16 4 21 9 3 20 4 24 1 5 -3 16 5 24 17 12 17 18 20
28 10 7 -7 19 -12 27 -12 33 0 101 -35 101 -52 0 -23 38 -48 72 -48 16 0 28
-4 28 -10 0 -5 9 -10 19 -10 11 0 23 -9 26 -20 3 -11 13 -20 21 -20 8 0 14 -5
14 -11 0 -6 16 -30 35 -53 19 -24 35 -46 35 -50 0 -11 68 -76 80 -76 5 0 10
-5 10 -12 0 -9 3 -9 12 0 8 8 18 5 40 -13 16 -14 36 -25 44 -25 8 0 26 -7 39
-16 18 -12 25 -13 25 -4 0 8 8 10 21 7 12 -3 32 -1 46 4 17 6 30 6 38 -1 7 -6
21 -7 31 -3 17 6 17 7 -2 13 -17 6 -17 8 4 19 25 13 83 15 155 5 30 -4 53 -2
59 4 7 7 16 7 29 -1 22 -14 35 -4 44 35 5 21 3 27 -15 33 -15 5 -19 12 -15 26
4 11 1 21 -7 24 -10 4 -12 22 -8 73 6 73 13 92 36 92 8 0 13 4 9 10 -3 5 6 5
24 -1 25 -9 33 -21 51 -73 21 -63 50 -99 118 -145 28 -20 36 -21 66 -11 27 9
47 8 97 -5 l63 -16 28 30 c16 17 35 31 42 31 29 0 116 132 116 176 0 6 7 17
15 24 11 10 22 6 54 -17 22 -15 47 -40 56 -55 9 -16 25 -28 36 -28 14 0 19 -7
19 -28 0 -24 7 -31 48 -49 26 -12 48 -17 50 -13 6 15 -18 50 -33 50 -8 0 -12
6 -9 14 3 7 -11 49 -31 92 -38 82 -111 163 -148 164 -10 0 -28 6 -40 14 -12 8
-47 17 -77 20 -88 11 -316 8 -435 -4 -60 -7 -128 -12 -150 -11 -22 0 -46 -6
-54 -12 -8 -7 -16 -11 -18 -9 -2 2 -27 1 -56 -2 -114 -12 -190 -12 -255 -1
-86 16 -97 21 -110 51 -7 14 -20 24 -32 24 -11 0 -20 6 -20 14 0 8 -3 16 -7
19 -5 2 -3 2 4 1 7 -2 26 4 43 13 26 13 31 20 28 47 -2 25 0 30 15 28 10 -2
29 4 42 12 15 10 35 13 59 9 20 -3 36 -3 36 1 0 11 -40 46 -52 46 -8 0 -9 3
-2 10 8 8 263 25 319 22 11 -1 31 3 45 8 16 7 64 7 140 1 122 -10 136 -12 215
-31 28 -7 95 -13 150 -14 55 -1 107 -5 115 -8 8 -4 58 -13 110 -22 52 -8 96
-18 97 -23 2 -4 23 -7 48 -6 25 0 45 -3 45 -8 0 -14 84 -11 98 3 10 10 17 10
32 0 16 -10 20 -10 20 1 0 8 9 22 20 32 27 25 25 91 -2 89 -17 -2 -23 13 -19
44 1 6 -4 12 -11 12 -7 0 -21 17 -30 38 -16 36 -59 92 -71 92 -3 0 1 -12 9
-27 23 -46 16 -49 -24 -10 -21 20 -42 37 -46 37 -5 0 -23 10 -40 23 -17 13
-44 28 -61 34 -49 19 -156 33 -220 30 -33 -2 -71 1 -85 6 -14 5 -65 11 -115
13 -119 6 -156 10 -180 18 -11 3 -34 2 -51 -3 -26 -7 -31 -6 -30 8 1 13 -7 15
-41 13 -43 -4 -60 11 -25 22 9 3 -7 3 -35 1 -54 -4 -71 7 -30 20 14 4 18 8 9
12 -8 3 -38 -3 -69 -12 -61 -19 -203 -26 -203 -10 0 7 -3 7 -8 0 -4 -5 -26
-20 -49 -32 -43 -22 -66 -15 -43 12 19 23 3 18 -19 -6 -12 -13 -26 -19 -35
-16 -9 4 -16 3 -16 -2 0 -5 -18 -11 -40 -15 -22 -3 -40 -11 -40 -18 0 -17 -32
-37 -61 -38 -38 0 -89 20 -89 35 0 8 -8 11 -20 8 -15 -4 -20 0 -20 15 0 11 7
27 15 36 10 10 15 35 15 77 0 53 -2 60 -15 49 -8 -7 -15 -19 -15 -26 0 -8 -7
-14 -15 -14 -11 0 -13 8 -8 33 3 17 7 34 9 35 1 2 -3 24 -11 48 l-13 44 36 1
c36 1 37 1 7 8 -25 5 -30 11 -32 39 -1 18 4 32 10 32 7 1 1 10 -13 22 -18 15
-21 22 -11 26 11 4 11 6 0 13 -8 5 -9 9 -4 9 6 0 9 17 7 39 -2 21 1 49 8 61 8
15 8 25 1 34 -8 10 -7 16 3 25 12 10 29 119 31 196 0 15 6 19 23 18 14 -2 22
3 22 13 0 8 11 27 24 41 24 26 25 26 161 24 75 -1 147 -6 160 -11 26 -10 65
-3 65 12 0 5 10 8 23 7 12 -2 32 3 45 9 15 9 22 9 22 2 0 -6 -13 -19 -30 -28
-16 -9 -30 -20 -30 -24 0 -5 -7 -8 -15 -8 -8 0 -15 -4 -15 -10 0 -19 28 -10
74 26 26 20 63 38 84 41 50 7 122 42 130 62 3 9 14 22 25 30 14 10 16 16 6 21
-9 6 -7 18 8 50 12 22 23 35 26 28 6 -18 34 52 42 107 4 25 11 45 16 45 5 0 9
7 9 15 0 9 9 35 21 58 40 82 69 169 79 240 5 40 15 100 20 135 7 42 7 70 0 82
-11 21 -14 113 -3 123 3 4 8 33 10 65 7 119 12 158 24 202 13 49 35 80 56 80
7 0 18 11 23 24 12 33 44 52 108 65 30 6 63 18 75 26 12 8 28 15 35 15 8 0 26
9 42 20 15 11 30 17 33 13 4 -3 26 4 50 15 103 48 179 66 282 66 55 0 120 -3
145 -6 25 -4 108 -11 185 -15 77 -5 145 -11 150 -15 6 -3 35 0 65 8 30 8 72
15 93 16 21 1 40 6 44 11 3 5 9 4 13 -3 5 -9 34 -6 115 12 85 18 102 24 79 29
-23 5 -20 7 19 8 34 1 49 6 54 17 5 12 14 15 43 10 26 -4 39 -2 43 7 6 15 281
13 383 -3z m-2426 -1594 c0 -3 -4 -8 -10 -11 -5 -3 -10 -1 -10 4 0 6 5 11 10
11 6 0 10 -2 10 -4z m-790 -516 c0 -5 -5 -10 -11 -10 -5 0 -7 5 -4 10 3 6 8
10 11 10 2 0 4 -4 4 -10z m5090 -230 c0 -5 -2 -10 -4 -10 -3 0 -8 5 -11 10 -3
6 -1 10 4 10 6 0 11 -4 11 -10z m-5090 -10 c0 -5 -4 -10 -10 -10 -5 0 -10 5
-10 10 0 6 5 10 10 10 6 0 10 -4 10 -10z m550 -205 c-13 -14 -31 -25 -39 -25
-11 1 -8 8 12 25 37 33 57 32 27 0z m2702 -150 c-5 -39 -25 -47 -42 -16 -8 16
-6 23 12 35 32 22 35 20 30 -19z m-2905 -221 c-3 -3 -12 -4 -19 -1 -8 3 -5 6
6 6 11 1 17 -2 13 -5z m3918 -23 c41 -9 39 -35 -3 -39 -20 -2 -30 -7 -26 -14
4 -7 2 -8 -5 -4 -6 4 -18 3 -26 -4 -13 -11 -133 -8 -219 6 -27 5 -37 3 -32 -5
4 -6 4 -11 -1 -12 -4 0 -28 -2 -53 -4 -25 -1 -60 -10 -77 -19 -34 -17 -73 -21
-73 -8 0 13 121 70 175 83 103 24 275 34 340 20z m2285 -96 c0 -8 -14 -28 -30
-45 -25 -26 -33 -29 -51 -20 -27 15 -21 39 16 61 37 22 65 24 65 4z m-2830
-24 c0 -15 -33 -22 -44 -10 -7 8 -7 10 -1 6 6 -3 17 -2 25 4 19 11 20 11 20 0z
m-55 -31 c-3 -5 -12 -10 -18 -10 -7 0 -6 4 3 10 19 12 23 12 15 0z m2755 -11
c0 -5 -4 -9 -10 -9 -5 0 -10 7 -10 16 0 8 5 12 10 9 6 -3 10 -10 10 -16z
m-6780 -18 c0 -6 -4 -13 -10 -16 -5 -3 -10 1 -10 9 0 9 5 16 10 16 6 0 10 -4
10 -9z m4336 -5 c10 -26 -19 -71 -46 -71 -29 0 -35 19 -21 58 8 20 18 27 36
27 14 0 28 -6 31 -14z m124 -1 c7 -8 10 -25 6 -39 -11 -43 -60 -44 -68 -1 -9
47 33 75 62 40z m2025 -55 c4 -12 16 -30 28 -42 12 -11 17 -18 10 -14 -9 5
-10 -4 -6 -31 11 -67 7 -92 -17 -123 -17 -21 -21 -23 -30 -10 -8 12 -10 11
-10 -7 0 -36 -20 -27 -21 10 0 27 -2 29 -10 12 -8 -18 -8 -18 -6 5 1 14 8 25
16 25 22 0 24 21 5 40 -15 15 -16 22 -5 59 11 37 18 66 20 89 2 15 20 6 26
-13z m-4988 -56 c8 -22 -16 -54 -42 -54 -22 0 -25 5 -25 34 0 19 6 36 13 39
18 6 48 -4 54 -19z m118 -14 c0 -31 -3 -35 -25 -35 -18 0 -27 8 -34 28 -12 32
4 49 39 45 16 -2 20 -11 20 -38z m-1315 -50 c0 -5 -5 -10 -11 -10 -5 0 -7 5
-4 10 3 6 8 10 11 10 2 0 4 -4 4 -10z m6358 -158 c18 -12 20 -17 11 -29 -9
-10 -9 -17 -1 -25 9 -9 12 -7 12 7 0 10 3 15 6 12 4 -4 0 -26 -9 -49 -18 -49
-22 -144 -6 -153 5 -4 7 -16 3 -27 -4 -14 -2 -18 5 -14 6 4 13 1 15 -6 27 -90
49 -154 56 -158 18 -11 33 -148 32 -285 -1 -77 -2 -159 -2 -182 0 -23 -5 -45
-10 -48 -6 -3 -10 -18 -10 -33 0 -30 -25 -66 -82 -122 -21 -20 -38 -44 -38
-53 0 -28 -11 -46 -26 -40 -8 3 -14 13 -14 23 0 10 -9 20 -20 23 -11 3 -23 13
-26 24 -4 10 -14 26 -23 36 -18 22 -16 94 4 114 16 16 9 43 -11 43 -7 0 -17
-7 -22 -16 -8 -14 -11 -11 -21 16 -14 41 -14 71 1 183 8 69 14 87 22 76 6 -8
19 -13 29 -11 12 2 20 -3 24 -17 11 -42 92 -26 94 19 1 40 9 74 19 84 17 17
11 46 -9 46 -16 0 -18 7 -16 47 3 38 -2 53 -21 76 -17 20 -23 36 -18 51 7 23
7 24 5 46 -1 13 -2 13 -11 0 -6 -10 -10 -11 -10 -2 0 6 -7 12 -15 12 -17 0
-20 32 -6 59 6 10 6 23 0 32 -6 10 -9 10 -9 2 0 -7 -9 -13 -20 -13 -13 0 -20
-7 -20 -20 0 -25 -9 -25 -49 -2 -24 13 -31 23 -29 42 2 16 10 26 23 28 23 4
60 74 51 97 -3 8 -1 15 4 15 6 0 10 18 10 39 0 31 6 43 28 60 29 21 59 19 100
-7z m-163 -1204 c4 4 3 -3 -4 -15 -18 -36 -31 -37 -31 -2 0 25 3 29 13 20 8
-6 17 -7 22 -3z m-6725 -223 c0 -26 -14 -33 -25 -15 -9 14 1 40 15 40 5 0 10
-11 10 -25z m-43 -17 c-3 -7 -5 -2 -5 12 0 14 2 19 5 13 2 -7 2 -19 0 -25z
m6123 -48 c0 -5 -4 -10 -10 -10 -5 0 -10 5 -10 10 0 6 5 10 10 10 6 0 10 -4
10 -10z m720 -58 c14 -9 28 -21 32 -26 4 -6 30 -5 71 2 81 15 100 14 62 -3
l-30 -14 27 -1 c14 0 29 -6 31 -12 3 -7 6 -1 6 15 2 53 35 20 60 -60 11 -34
11 -46 0 -72 -8 -17 -19 -31 -26 -31 -7 0 -17 -9 -23 -20 -6 -11 -14 -18 -18
-16 -5 3 -28 -4 -52 -15 -36 -16 -56 -19 -99 -14 -52 7 -101 22 -111 36 -3 4
-21 11 -40 16 -41 11 -60 41 -60 98 1 48 18 127 30 135 16 10 115 -3 140 -18z
m-1140 -1092 c0 -5 -5 -10 -11 -10 -5 0 -7 5 -4 10 3 6 8 10 11 10 2 0 4 -4 4
-10z m425 -1137 c7 -32 25 -103 39 -158 64 -240 74 -621 22 -855 -57 -259
-141 -565 -220 -803 -47 -139 -94 -290 -106 -337 -29 -118 -58 -206 -86 -265
-13 -27 -37 -102 -55 -165 -17 -63 -51 -180 -76 -260 -25 -80 -65 -215 -90
-300 -24 -85 -69 -238 -98 -340 -64 -220 -103 -359 -139 -495 -15 -55 -54
-183 -86 -285 -33 -102 -60 -201 -60 -220 0 -19 -27 -138 -60 -265 -33 -126
-114 -444 -180 -705 -139 -550 -184 -722 -198 -745 -8 -15 -11 -13 -23 14 -8
17 -17 31 -20 31 -9 0 -32 -51 -44 -100 l-12 -45 -6 45 c-4 25 -19 144 -33
265 -14 121 -40 299 -59 395 -19 96 -48 249 -65 340 -29 152 -56 265 -124 520
-23 88 -77 247 -155 462 -27 75 -30 91 -20 110 7 13 13 52 13 88 1 49 7 75 25
105 13 22 35 71 48 110 29 79 41 99 97 170 101 127 226 229 226 185 0 -5 7 -7
15 -4 8 4 21 1 29 -5 19 -16 36 3 61 63 19 46 44 61 46 29 1 -10 1 -61 0 -113
l-1 -95 15 45 c8 25 16 53 18 62 2 9 15 27 30 38 15 12 38 41 52 64 25 43 25
44 11 120 -9 42 -18 81 -21 86 -3 6 -10 31 -15 58 -11 63 -86 306 -104 340 -8
15 -26 53 -40 85 -14 31 -29 57 -34 57 -35 0 -122 -25 -122 -35 0 -14 -37 -31
-85 -39 -16 -3 -129 -8 -250 -11 -120 -4 -222 -8 -226 -10 -3 -3 -46 -5 -95
-6 -79 -1 -248 -28 -272 -43 -5 -3 -76 -7 -158 -10 -82 -2 -162 -9 -177 -15
-41 -16 -75 -14 -86 6 -18 33 -20 8 -5 -52 18 -66 10 -95 -33 -114 -35 -16
-53 -13 -21 5 44 23 52 48 33 99 -20 52 -30 57 -101 49 -55 -7 -108 -37 -82
-47 7 -3 -2 -6 -20 -6 -29 -1 -35 4 -48 34 -8 20 -12 40 -9 45 3 5 1 11 -4 14
-22 14 -75 -155 -136 -444 -37 -172 -42 -255 -15 -255 8 0 16 10 18 23 3 19
10 13 43 -38 22 -34 47 -69 57 -79 46 -47 132 -76 195 -68 69 10 142 -31 262
-145 89 -85 103 -103 125 -163 14 -37 42 -87 62 -110 43 -49 58 -82 58 -129 0
-17 5 -37 11 -43 17 -17 1 -49 -40 -83 -22 -16 -46 -48 -55 -71 -16 -40 -16
-45 9 -139 31 -122 31 -154 -3 -207 -113 -174 -194 -308 -221 -362 -46 -90
-164 -389 -196 -496 -15 -49 -56 -175 -91 -280 -97 -291 -175 -552 -191 -639
-5 -27 -8 -25 -30 35 -13 35 -53 154 -88 264 -34 110 -101 317 -148 460 -172
525 -245 760 -261 847 -8 37 -20 73 -28 82 -8 8 -29 61 -47 118 -18 56 -77
240 -131 408 -55 168 -138 424 -185 570 -198 618 -272 834 -385 1125 -60 155
-96 254 -124 340 -65 201 -107 325 -166 495 -37 107 -89 267 -115 355 -26 88
-55 189 -66 225 -59 195 -83 388 -83 665 0 200 17 415 33 415 3 0 13 -17 22
-38 10 -20 33 -72 53 -115 20 -44 36 -82 36 -86 0 -5 18 -46 41 -92 23 -46 49
-104 59 -129 54 -135 124 -253 174 -289 10 -8 96 -92 190 -187 170 -172 172
-174 418 -336 136 -90 274 -178 306 -197 33 -18 91 -57 128 -86 38 -30 103
-75 144 -100 41 -26 89 -58 107 -71 44 -33 159 -200 188 -273 20 -47 45 -80
125 -161 138 -138 189 -157 223 -82 17 37 7 70 -17 55 -6 -4 -3 5 7 20 22 34
22 36 -9 47 -14 6 -23 14 -19 19 3 5 -5 11 -17 13 -25 3 -38 38 -15 38 9 0 17
-5 19 -12 2 -6 10 -8 17 -4 7 5 10 14 7 21 -4 10 8 13 47 12 53 -2 66 -17 25
-29 -43 -12 -3 -8 66 6 38 8 73 21 78 28 7 10 8 10 7 -2 -3 -22 12 -70 21 -70
5 0 12 9 15 21 4 12 13 18 20 15 8 -3 15 0 17 6 3 7 24 11 56 9 47 -2 52 0 52
19 0 15 6 20 26 20 14 0 23 -4 19 -10 -10 -16 37 -29 60 -17 27 15 57 17 72 5
17 -13 33 -1 27 20 -5 13 -4 14 4 4 7 -11 27 -12 88 -7 72 7 78 6 65 -9 -11
-13 -11 -19 -1 -31 16 -19 4 -35 -25 -35 -30 0 -39 -14 -20 -30 11 -9 19 -9
28 -2 7 6 22 9 34 6 11 -3 24 -1 27 5 9 14 26 14 26 1 0 -6 -18 -18 -39 -27
-22 -10 -42 -25 -44 -34 -3 -10 -20 -18 -46 -23 -22 -3 -41 -10 -41 -15 0 -5
-2 -16 -5 -23 -5 -11 7 -14 54 -14 57 1 61 3 103 46 24 25 58 65 75 90 36 53
133 131 183 147 19 6 53 14 74 18 46 8 52 11 226 136 139 101 210 161 210 180
0 6 46 56 103 112 56 57 111 114 123 127 11 14 50 52 85 85 35 33 121 114 190
180 139 133 184 174 279 255 155 132 230 225 319 394 29 54 60 112 70 130 9
17 24 49 33 71 9 22 27 65 41 95 41 88 72 168 107 278 18 56 35 100 37 98 3
-3 11 -31 18 -63z m-2160 -2113 c3 -6 -1 -13 -10 -16 -19 -8 -30 0 -20 15 8
14 22 14 30 1z"/>
<path d="M8700 15670 c0 -5 6 -10 14 -10 8 0 18 5 21 10 3 6 -3 10 -14 10 -12
0 -21 -4 -21 -10z"/>
<path d="M8560 15660 c-66 -5 -75 -7 -40 -10 64 -5 143 0 155 11 5 5 2 8 -10
7 -11 -1 -58 -5 -105 -8z"/>
<path d="M13294 15284 c3 -9 6 -18 6 -20 0 -3 5 -2 10 1 16 10 12 35 -6 35
-11 0 -14 -5 -10 -16z"/>
<path d="M8306 15081 c-4 -7 -5 -15 -2 -18 9 -9 19 4 14 18 -4 11 -6 11 -12 0z"/>
<path d="M8815 14940 c-3 -5 3 -10 14 -10 11 0 23 5 26 10 3 6 -3 10 -14 10
-11 0 -23 -4 -26 -10z"/>
<path d="M11537 14868 c-15 -26 -15 -29 -2 -18 20 16 39 50 28 50 -4 0 -16
-14 -26 -32z"/>
<path d="M8365 14840 c-8 -13 -1 -24 14 -19 6 3 7 10 2 18 -6 10 -10 10 -16 1z"/>
<path d="M11408 14653 c7 -3 16 -2 19 1 4 3 -2 6 -13 5 -11 0 -14 -3 -6 -6z"/>
<path d="M11350 14640 c0 -5 6 -10 14 -10 8 0 18 5 21 10 3 6 -3 10 -14 10
-12 0 -21 -4 -21 -10z"/>
<path d="M11425 14621 c-3 -5 -1 -12 5 -16 5 -3 10 1 10 9 0 18 -6 21 -15 7z"/>
<path d="M9788 14423 c7 -3 16 -2 19 1 4 3 -2 6 -13 5 -11 0 -14 -3 -6 -6z"/>
<path d="M7950 14131 c0 -6 5 -13 10 -16 6 -3 10 1 10 9 0 9 -4 16 -10 16 -5
0 -10 -4 -10 -9z"/>
<path d="M9080 13843 c0 -26 16 -47 29 -39 7 5 7 14 -1 31 -13 29 -28 33 -28
8z"/>
<path d="M9120 13840 c0 -5 5 -10 10 -10 6 0 10 5 10 10 0 6 -4 10 -10 10 -5
0 -10 -4 -10 -10z"/>
<path d="M9273 13843 c9 -2 23 -2 30 0 6 3 -1 5 -18 5 -16 0 -22 -2 -12 -5z"/>
<path d="M8095 12830 c-3 -5 -1 -10 4 -10 6 0 11 5 11 10 0 6 -2 10 -4 10 -3
0 -8 -4 -11 -10z"/>
<path d="M11141 12454 c-19 -8 -56 -30 -83 -49 -26 -19 -52 -35 -56 -35 -5 0
-20 -13 -35 -28 -20 -21 -24 -31 -16 -39 14 -14 -38 -66 -58 -59 -7 3 -13 1
-13 -4 0 -6 -12 -10 -27 -10 -16 0 -34 -4 -42 -9 -8 -5 -27 -5 -45 1 -37 11
-74 17 -130 19 -46 3 -76 17 -76 37 0 6 -17 24 -38 39 -21 15 -51 43 -67 63
-30 37 -92 70 -132 70 -25 0 -36 -21 -38 -79 -2 -24 -9 -47 -16 -52 -10 -6
-14 -32 -15 -91 l0 -83 -54 -3 c-29 -2 -65 1 -79 6 -14 6 -35 13 -46 17 -32
12 -56 13 -51 1 19 -46 33 -66 44 -66 6 0 12 -7 12 -14 0 -32 89 -80 165 -89
88 -12 194 31 211 86 3 10 11 16 17 14 7 -2 18 2 25 9 10 11 31 4 112 -36 59
-30 113 -50 132 -50 51 0 149 18 188 34 82 34 133 45 151 33 14 -9 21 -9 30 0
9 9 19 7 41 -12 43 -36 100 -49 218 -50 86 0 112 4 145 20 51 25 125 129 132
185 5 38 4 40 -20 40 -14 0 -28 6 -30 13 -4 10 -6 10 -6 0 -3 -40 -86 -83
-166 -86 -61 -2 -69 3 -79 55 -4 15 -23 39 -46 56 -22 16 -37 31 -34 35 3 3
-4 10 -15 17 -14 7 -21 21 -21 41 0 40 -16 69 -38 69 -9 -1 -32 -7 -51 -16z"/>
<path d="M8187 12394 c-8 -8 3 -34 14 -34 5 0 9 9 9 20 0 19 -11 26 -23 14z"/>
<path d="M8170 12090 c0 -5 5 -10 10 -10 6 0 10 5 10 10 0 6 -4 10 -10 10 -5
0 -10 -4 -10 -10z"/>
<path d="M8163 11980 c0 -25 2 -35 4 -22 2 12 2 32 0 45 -2 12 -4 2 -4 -23z"/>
<path d="M10026 11485 c15 -23 54 -35 54 -17 0 8 -52 42 -64 42 -4 0 1 -11 10
-25z"/>
<path d="M9913 11445 c2 -20 37 -35 37 -16 0 6 -6 11 -14 11 -8 0 -17 6 -20
13 -3 6 -5 3 -3 -8z"/>
<path d="M11810 11452 c0 -6 7 -17 15 -26 8 -8 15 -19 15 -25 0 -16 -74 -10
-87 8 -6 9 -15 12 -20 8 -4 -5 0 -14 9 -21 10 -7 15 -16 12 -19 -3 -3 3 -3 15
0 17 4 21 1 21 -20 0 -14 -8 -30 -17 -36 -16 -9 -16 -11 5 -29 30 -27 29 -66
-3 -80 -34 -16 -56 -15 -79 3 -11 8 -30 15 -43 15 -13 0 -26 7 -29 15 -4 8
-15 15 -26 15 -11 0 -32 12 -47 28 -28 28 -61 46 -141 78 -25 10 -47 21 -50
25 -15 20 -118 37 -250 42 -41 2 -82 5 -90 8 -11 3 -16 -5 -18 -27 -2 -25 -9
-33 -27 -36 -14 -3 -22 -1 -19 3 9 15 -37 10 -52 -6 -9 -8 -24 -15 -34 -15
-10 0 -26 -10 -34 -22 -13 -18 -18 -19 -31 -8 -13 11 -19 10 -34 -4 -16 -15
-19 -15 -24 -1 -4 8 -15 15 -25 15 -11 0 -25 6 -31 14 -6 7 -26 16 -43 20 -17
3 -38 15 -46 27 -11 15 -21 19 -39 14 -16 -4 -35 0 -50 11 -16 10 -37 14 -57
11 -72 -12 -133 -31 -155 -48 -13 -11 -31 -19 -39 -19 -24 0 -152 -62 -146
-71 2 -4 -8 -16 -23 -25 -15 -10 -41 -31 -58 -47 -59 -58 -107 -75 -77 -27 11
17 10 20 -8 20 -17 0 -19 5 -14 33 3 17 7 38 10 45 5 17 -15 15 -22 -3 -5 -13
-8 -13 -21 1 -13 12 -13 20 -4 40 14 31 15 84 1 84 -5 0 -10 -12 -10 -26 0
-21 -4 -24 -20 -19 -15 5 -20 2 -21 -12 0 -16 -1 -16 -9 2 -5 11 -9 15 -9 9
-1 -5 -7 -19 -15 -29 -12 -16 -16 -17 -30 -6 -17 14 -21 5 -7 -18 11 -18 -18
-49 -41 -43 -22 5 -62 -81 -53 -115 3 -13 1 -23 -5 -23 -6 0 -9 -4 -5 -9 10
-17 7 -161 -3 -174 -15 -17 -12 -78 2 -69 11 7 99 13 187 13 27 0 63 -8 86
-19 54 -28 141 -51 188 -51 79 0 105 4 105 16 0 6 5 13 11 15 7 2 7 12 0 29
-5 15 -8 52 -6 83 3 55 5 58 40 76 20 10 77 28 127 40 79 19 131 22 458 27
393 6 474 0 540 -39 19 -11 49 -20 67 -20 23 1 38 -6 51 -23 11 -14 25 -25 30
-25 12 0 -16 -61 -32 -72 -8 -5 -6 -12 4 -22 21 -21 169 -22 240 -1 35 10 92
15 160 15 58 -1 133 -1 167 -1 56 0 62 -2 66 -22 3 -21 4 -20 15 6 6 15 16 27
21 27 6 0 19 10 31 22 19 21 21 21 33 3 10 -12 16 -14 21 -7 11 19 24 14 29
-10 3 -17 5 -14 6 10 1 26 5 32 24 32 36 0 39 10 12 42 -27 32 -32 54 -12 61
6 2 -3 11 -21 21 -18 9 -42 26 -53 37 -10 10 -23 19 -27 19 -4 0 -16 15 -27
33 -10 17 -21 34 -25 37 -3 3 -14 16 -23 29 -14 21 -17 22 -23 8 -5 -15 -8
-15 -30 -1 -13 9 -22 20 -19 24 3 5 1 11 -5 15 -5 3 -10 16 -11 28 0 12 -3 16
-6 10 -7 -20 -27 -15 -53 12 -23 24 -41 33 -39 18 4 -22 -3 -23 -27 -4 -14 11
-32 17 -40 14 -16 -6 -59 19 -86 50 -10 11 -18 15 -18 9z m-1004 -147 c17 -16
14 -18 -10 -9 -9 3 -16 10 -16 15 0 13 9 11 26 -6z m999 5 c3 -5 1 -10 -4 -10
-6 0 -11 5 -11 10 0 6 2 10 4 10 3 0 8 -4 11 -10z"/>
<path d="M10025 11419 c-9 -27 11 -66 37 -72 18 -5 19 -2 13 30 -6 32 -25 63
-39 63 -2 0 -8 -10 -11 -21z"/>
<path d="M9975 11412 c-32 -6 -39 -19 -21 -37 9 -9 16 -25 16 -36 0 -10 7 -19
15 -19 18 0 20 31 3 48 -8 8 -8 15 2 27 15 19 12 23 -15 17z"/>
<path d="M9623 11090 c-6 -17 -7 -30 -2 -30 5 0 12 -18 15 -40 10 -59 36 -54
31 5 -4 40 -17 77 -17 47 0 -7 -5 -12 -10 -12 -7 0 -7 6 -1 18 5 10 6 23 2 30
-4 7 -11 0 -18 -18z"/>
<path d="M12751 10754 c0 -11 3 -14 6 -6 3 7 2 16 -1 19 -3 4 -6 -2 -5 -13z"/>
<path d="M10391 10683 c-21 -18 -20 -18 34 -43 30 -14 55 -31 55 -37 0 -8 13
-13 31 -13 16 0 28 -4 24 -9 -10 -17 10 -20 71 -12 35 5 64 5 71 -1 6 -5 22
-8 35 -6 36 4 118 -12 118 -24 0 -6 7 -7 18 -3 9 5 69 9 133 10 150 2 259 28
259 61 0 12 2 28 5 36 8 22 -49 41 -103 34 -50 -6 -188 -15 -287 -19 -33 -1
-94 2 -135 7 -41 5 -101 8 -133 8 -32 -1 -79 6 -105 13 -60 19 -65 19 -91 -2z"/>
<path d="M14740 14350 c0 -5 7 -10 16 -10 8 0 12 5 9 10 -3 6 -10 10 -16 10
-5 0 -9 -4 -9 -10z"/>
<path d="M14400 13780 c0 -19 3 -21 12 -12 9 9 9 15 0 24 -9 9 -12 7 -12 -12z"/>
<path d="M10782 7868 c2 -6 10 -14 16 -16 7 -2 10 2 6 12 -7 18 -28 22 -22 4z"/>
<path d="M11835 7828 c-72 -69 -75 -93 -15 -125 39 -20 52 -22 92 -15 48 9
108 56 108 84 -1 26 -93 108 -122 108 -4 0 -32 -24 -63 -52z"/>
<path d="M11375 7757 c1 -12 4 -22 6 -21 11 1 43 24 37 25 -5 1 -11 2 -15 3
-5 1 -13 4 -19 8 -6 4 -10 -1 -9 -15z"/>
<path d="M11460 7759 c0 -5 5 -7 10 -4 6 3 10 8 10 11 0 2 -4 4 -10 4 -5 0
-10 -5 -10 -11z"/>
<path d="M11313 7664 c6 -19 13 -34 16 -34 11 1 51 38 51 48 0 6 6 12 13 15 6
2 -11 5 -39 5 l-52 1 11 -35z"/>
<path d="M10942 7429 c5 -16 78 -25 78 -10 0 6 -11 11 -24 11 -13 0 -32 3 -42
7 -12 4 -15 2 -12 -8z"/>
<path d="M10868 7373 c6 -2 18 -2 25 0 6 3 1 5 -13 5 -14 0 -19 -2 -12 -5z"/>
<path d="M14822 14416 c7 -8 15 -12 17 -11 5 6 -10 25 -20 25 -5 0 -4 -6 3
-14z"/>
<path d="M7083 14228 c-13 -6 -23 -14 -23 -19 0 -12 38 2 44 17 3 8 4 14 3 13
-1 0 -12 -5 -24 -11z"/>
<path d="M7531 14004 c0 -11 3 -14 6 -6 3 7 2 16 -1 19 -3 4 -6 -2 -5 -13z"/>
<path d="M7511 13960 c-11 -6 -9 -13 8 -31 l21 -23 0 27 c0 30 -10 39 -29 27z"/>
<path d="M14977 13603 c-19 -55 -23 -89 -6 -61 15 27 38 108 30 108 -4 0 -15
-21 -24 -47z"/>
<path d="M14931 13434 c0 -11 3 -14 6 -6 3 7 2 16 -1 19 -3 4 -6 -2 -5 -13z"/>
<path d="M14850 13110 c0 -16 2 -30 4 -30 2 0 6 14 8 30 3 17 1 30 -4 30 -4 0
-8 -13 -8 -30z"/>
<path d="M14832 12960 c0 -14 2 -19 5 -12 2 6 2 18 0 25 -3 6 -5 1 -5 -13z"/>
<path d="M14812 12861 c-14 -46 -15 -71 -3 -71 8 0 26 99 18 106 -2 2 -9 -13
-15 -35z"/>
<path d="M7270 12651 c0 -5 5 -13 10 -16 6 -3 10 -2 10 4 0 5 -4 13 -10 16 -5
3 -10 2 -10 -4z"/>
<path d="M7302 12600 c0 -14 2 -19 5 -12 2 6 2 18 0 25 -3 6 -5 1 -5 -13z"/>
<path d="M7322 12509 c6 -16 12 -29 13 -27 6 6 -8 58 -16 58 -4 0 -3 -14 3
-31z"/>
<path d="M7342 12450 c0 -14 2 -19 5 -12 2 6 2 18 0 25 -3 6 -5 1 -5 -13z"/>
<path d="M7356 12393 c9 -36 12 -39 26 -25 9 9 7 17 -10 33 l-23 20 7 -28z"/>
<path d="M7340 11966 c0 -8 5 -18 10 -21 6 -3 10 1 10 9 0 8 -4 18 -10 21 -5
3 -10 -1 -10 -9z"/>
<path d="M7362 11933 c-21 -8 48 -94 73 -92 6 0 4 3 -4 6 -11 5 -11 7 0 14 10
6 11 9 2 9 -7 0 -13 9 -13 21 0 15 -5 19 -15 15 -9 -3 -15 0 -15 9 0 17 -11
24 -28 18z"/>
</g>
</svg>
